<svg width="116" height="116" viewBox="0 0 116 116" fill="none" xmlns="http://www.w3.org/2000/svg">
	<path d="M8.35913 58.0365C8.35913 77.6436 19.7863 94.6113 36.3133 102.624L12.7034 37.8638C9.87017 43.991 8.35913 50.7781 8.35913 58.0365Z" fill="#21759B"/>
	<path d="M91.4662 55.4913C91.4662 49.3641 89.2941 45.1222 87.4053 41.8229C84.8554 37.7695 82.4944 34.2817 82.4944 30.2283C82.4944 25.7036 85.9887 21.4617 90.8051 21.4617C90.994 21.4617 91.2773 21.4617 91.4662 21.4617C82.6833 13.3549 70.8783 8.45312 58.0345 8.45312C40.6576 8.45312 25.4528 17.314 16.5754 30.7939C17.7087 30.7939 18.842 30.8882 19.7864 30.8882C24.9806 30.8882 33.008 30.2283 33.008 30.2283C35.6523 30.0398 36.03 33.9989 33.2913 34.2817C33.2913 34.2817 30.647 34.5645 27.6249 34.753L45.6629 88.3898L56.5235 55.8684L48.7794 34.753C46.1351 34.5645 43.5852 34.2817 43.5852 34.2817C40.9409 34.0932 41.2242 30.0398 43.8686 30.2283C43.8686 30.2283 52.0848 30.8882 56.9012 30.8882C62.0954 30.8882 70.1228 30.2283 70.1228 30.2283C72.7671 30.0398 73.1449 33.9989 70.4061 34.2817C70.4061 34.2817 67.6674 34.5645 64.7398 34.753L82.6833 88.0127L87.5942 71.5164C89.8607 64.635 91.4662 59.7332 91.4662 55.4913Z" fill="#21759B"/>
	<path d="M58.8844 62.3726L43.9629 105.546C48.4016 106.866 53.1236 107.525 57.94 107.525C63.7008 107.525 69.2728 106.489 74.467 104.698C74.3725 104.509 74.1836 104.226 74.0892 104.038L58.8844 62.3726Z" fill="#21759B"/>
	<path d="M101.571 34.1873C101.76 35.7898 101.949 37.4865 101.949 39.2776C101.949 44.2736 101.005 49.9295 98.1714 56.9994L82.9666 100.738C97.6992 92.1602 107.615 76.2294 107.615 57.942C107.615 49.3639 105.443 41.2571 101.571 34.1873Z" fill="#21759B"/>
	<path d="M58.0344 0.251953C26.1138 0.251953 0.142822 26.1748 0.142822 58.0364C0.142822 89.8979 26.1138 115.821 58.0344 115.821C89.9551 115.821 115.926 89.8979 115.926 58.0364C115.832 26.1748 89.8607 0.251953 58.0344 0.251953ZM58.0344 113.087C27.5304 113.087 2.78714 88.3897 2.78714 58.0364C2.78714 27.5888 27.5304 2.89137 58.0344 2.89137C88.4441 2.89137 113.282 27.5888 113.282 58.0364C113.187 88.3897 88.4441 113.087 58.0344 113.087Z" fill="#21759B"/>
</svg>
