<svg width="82" height="128" viewBox="0 0 82 128" fill="none" xmlns="http://www.w3.org/2000/svg">
    <path
            d="M37.1109 125.889C39.2588 128.037 42.7412 128.037 44.8891 125.889L79.8909 90.8873C82.0388 88.7394 82.0388 85.257 79.8909 83.1091C77.743 80.9612 74.2606 80.9612 72.1127 83.1091L41 114.222L9.8873 83.1091C7.73942 80.9612 4.25701 80.9612 2.10913 83.1091C-0.0387573 85.257 -0.0387573 88.7394 2.10913 90.8873L37.1109 125.889ZM35.5 0V61H46.5V0H35.5ZM35.5 61V122H46.5V61H35.5Z"
            fill="#FFFAFA"/>
    <path
            d="M37.1109 125.889C39.2588 128.037 42.7412 128.037 44.8891 125.889L79.8909 90.8873C82.0388 88.7394 82.0388 85.257 79.8909 83.1091C77.743 80.9612 74.2606 80.9612 72.1127 83.1091L41 114.222L9.8873 83.1091C7.73942 80.9612 4.25701 80.9612 2.10913 83.1091C-0.0387573 85.257 -0.0387573 88.7394 2.10913 90.8873L37.1109 125.889ZM35.5 61V122H46.5V61H35.5Z"
            fill="#19AC90"/>
</svg>