<svg width="23" height="23" viewBox="0 0 23 23" fill="none" xmlns="http://www.w3.org/2000/svg">
    <path d="M15.7925 21.7298V18.9024C15.8294 18.4326 15.766 17.9604 15.6063 17.517C15.4466 17.0737 15.1944 16.6694 14.8664 16.3311C17.9599 15.9863 21.2109 14.8139 21.2109 9.43488C21.2106 8.05941 20.6816 6.73669 19.7332 5.74049C20.1822 4.53711 20.1505 3.20698 19.6445 2.0264C19.6445 2.0264 18.482 1.68159 15.7925 3.48445C13.5345 2.87248 11.1543 2.87248 8.8963 3.48445C6.20678 1.68159 5.04428 2.0264 5.04428 2.0264C4.53827 3.20698 4.50652 4.53711 4.95562 5.74049C4.00012 6.74408 3.47049 8.07876 3.47786 9.46443C3.47786 14.8041 6.72891 15.9764 9.82235 16.3606C9.49823 16.6956 9.24826 17.095 9.0887 17.5329C8.92915 17.9708 8.86359 18.4375 8.8963 18.9024V21.7298" stroke="#FFFAFA" stroke-width="2.2" stroke-linecap="round" stroke-linejoin="round"/>
    <path d="M8.89619 19.7592C5.94068 20.718 3.47776 19.7592 2 16.8037" stroke="#FFFAFA" stroke-width="2.2" stroke-linecap="round" stroke-linejoin="round"/>
</svg>
