<svg width="345" height="345" viewBox="0 0 345 345" fill="none" xmlns="http://www.w3.org/2000/svg">
    <path d="M172.5 0C77.1937 0 0 77.1937 0 172.5C0 267.806 77.1937 345 172.5 345C267.806 345 345 267.806 345 172.5C345 77.1937 267.806 0 172.5 0ZM172.5 43.125C186.731 43.125 200.1 47.0063 213.038 51.3188C203.981 59.9438 193.631 67.7062 195.356 75.4688C197.081 83.2313 225.112 81.075 225.112 97.0312C225.112 108.675 207 112.125 219.506 125.494C234.6 140.588 191.906 167.756 191.044 187.594C189.75 223.387 227.269 229.425 257.025 229.425C275.138 229.425 279.881 238.05 278.588 248.4C255.3 281.606 215.625 302.306 172.069 302.306C155.681 302.306 140.588 298.425 126.356 292.819C135.844 273.844 114.281 236.325 94.0125 224.25C84.0938 214.331 62.9625 218.212 50.8875 213.469C47.0062 201.825 43.125 190.181 42.6938 177.244C43.9875 175.088 46.1437 173.362 49.5937 173.362C57.7875 173.362 69 189.75 75.0375 188.025C82.8 186.3 43.125 131.531 61.6687 120.75C70.2937 115.575 87.5437 137.569 81.9375 113.85C76.7625 91.8563 97.4625 101.775 110.4 96.1688C121.612 91.425 129.806 78.4875 116.006 70.725C113.419 69.4312 110.4 66.4125 106.519 62.5313C125.925 50.8875 148.35 43.5562 172.5 43.5562V43.125ZM272.119 90.1312C279.881 99.6187 285.919 109.969 291.094 121.181V122.475C289.369 125.494 286.35 127.219 281.606 131.962C269.531 144.037 267.806 122.906 262.631 118.594C257.025 113.419 236.756 119.456 234.169 112.987C231.15 105.225 255.731 94.875 272.119 90.1312Z" fill="#FFFAFA"/>
</svg>
